<?xml version="1.0" encoding="utf-8" ?>
<svg xmlns="http://www.w3.org/2000/svg" xmlns:xlink="http://www.w3.org/1999/xlink" width="932" height="932">
	<rect fill="#1E1E3C" width="932" height="932"/>
	<path fill="none" stroke="red" stroke-width="4" stroke-miterlimit="4" d="M16 916L286 916"/>
	<text fill="lime" font-size="16" font-family="Segoe UI" x="118.10547, 126.73047, 135.35547, 143.98047, 148.36328, 153.19141, 161.81641, 170.44141, 179.06641, " y="916, ">
			302 (270)
	</text>
	<path fill="none" stroke="lime" stroke-width="4" stroke-linecap="round" stroke-miterlimit="4" d="M286 916L288.615 915.886"/>
	<path fill="none" stroke="lime" stroke-width="4" stroke-linecap="round" stroke-miterlimit="4" d="M288.615 915.886L291.209 915.544"/>
	<path fill="none" stroke="lime" stroke-width="4" stroke-linecap="round" stroke-miterlimit="4" d="M291.209 915.544L293.765 914.978"/>
	<path fill="none" stroke="lime" stroke-width="4" stroke-linecap="round" stroke-miterlimit="4" d="M293.765 914.978L296.261 914.191"/>
	<path fill="none" stroke="lime" stroke-width="4" stroke-linecap="round" stroke-miterlimit="4" d="M296.261 914.191L298.679 913.189"/>
	<path fill="none" stroke="lime" stroke-width="4" stroke-linecap="round" stroke-miterlimit="4" d="M298.679 913.189L301 911.981"/>
	<path fill="none" stroke="lime" stroke-width="4" stroke-linecap="round" stroke-miterlimit="4" d="M301 911.981L303.207 910.575"/>
	<path fill="none" stroke="lime" stroke-width="4" stroke-linecap="round" stroke-miterlimit="4" d="M303.207 910.575L305.284 908.981"/>
	<path fill="none" stroke="lime" stroke-width="4" stroke-linecap="round" stroke-miterlimit="4" d="M305.284 908.981L307.213 907.213"/>
	<path fill="none" stroke="lime" stroke-width="4" stroke-linecap="round" stroke-miterlimit="4" d="M307.213 907.213L308.981 905.284"/>
	<path fill="none" stroke="lime" stroke-width="4" stroke-linecap="round" stroke-miterlimit="4" d="M308.981 905.284L310.575 903.207"/>
	<path fill="none" stroke="lime" stroke-width="4" stroke-linecap="round" stroke-miterlimit="4" d="M310.575 903.207L311.981 901"/>
	<path fill="none" stroke="lime" stroke-width="4" stroke-linecap="round" stroke-miterlimit="4" d="M311.981 901L313.189 898.679"/>
	<path fill="none" stroke="lime" stroke-width="4" stroke-linecap="round" stroke-miterlimit="4" d="M313.189 898.679L314.191 896.261"/>
	<path fill="none" stroke="lime" stroke-width="4" stroke-linecap="round" stroke-miterlimit="4" d="M314.191 896.261L314.978 893.765"/>
	<path fill="none" stroke="lime" stroke-width="4" stroke-linecap="round" stroke-miterlimit="4" d="M314.978 893.765L315.544 891.209"/>
	<path fill="none" stroke="lime" stroke-width="4" stroke-linecap="round" stroke-miterlimit="4" d="M315.544 891.209L315.886 888.615"/>
	<path fill="none" stroke="lime" stroke-width="4" stroke-linecap="round" stroke-miterlimit="4" d="M315.886 888.615L316 886"/>
	<ellipse fill="red" cx="286" cy="886" rx="4" ry="4"/>
	<text fill="lime" font-size="16" font-family="Segoe UI" x="274.35938, 282.98438, 291.60938, " y="894, ">
			90°
	</text>
	<path fill="none" stroke="red" stroke-width="4" stroke-miterlimit="4" d="M316 886L316 646"/>
	<text fill="lime" font-size="16" font-family="Segoe UI" x="283.10547, 291.73047, 300.35547, 308.98047, 313.36328, 318.19141, 326.81641, 335.44141, 344.06641, " y="766, ">
			304 (240)
	</text>
	<path fill="none" stroke="lime" stroke-width="4" stroke-linecap="round" stroke-miterlimit="4" d="M316 646L316 643.385"/>
	<path fill="none" stroke="lime" stroke-width="4" stroke-linecap="round" stroke-miterlimit="4" d="M316 643.385L316 640.791"/>
	<path fill="none" stroke="lime" stroke-width="4" stroke-linecap="round" stroke-miterlimit="4" d="M316 640.791L316 638.235"/>
	<path fill="none" stroke="lime" stroke-width="4" stroke-linecap="round" stroke-miterlimit="4" d="M316 638.235L316 635.739"/>
	<path fill="none" stroke="lime" stroke-width="4" stroke-linecap="round" stroke-miterlimit="4" d="M316 635.739L316 633.321"/>
	<path fill="none" stroke="lime" stroke-width="4" stroke-linecap="round" stroke-miterlimit="4" d="M316 633.321L316 631"/>
	<path fill="none" stroke="lime" stroke-width="4" stroke-linecap="round" stroke-miterlimit="4" d="M316 631L316 628.793"/>
	<path fill="none" stroke="lime" stroke-width="4" stroke-linecap="round" stroke-miterlimit="4" d="M316 628.793L316 626.716"/>
	<path fill="none" stroke="lime" stroke-width="4" stroke-linecap="round" stroke-miterlimit="4" d="M316 626.716L316 624.787"/>
	<path fill="none" stroke="lime" stroke-width="4" stroke-linecap="round" stroke-miterlimit="4" d="M316 624.787L316 623.019"/>
	<path fill="none" stroke="lime" stroke-width="4" stroke-linecap="round" stroke-miterlimit="4" d="M316 623.019L316 621.425"/>
	<path fill="none" stroke="lime" stroke-width="4" stroke-linecap="round" stroke-miterlimit="4" d="M316 621.425L316 620.019"/>
	<path fill="none" stroke="lime" stroke-width="4" stroke-linecap="round" stroke-miterlimit="4" d="M316 620.019L316 618.811"/>
	<path fill="none" stroke="lime" stroke-width="4" stroke-linecap="round" stroke-miterlimit="4" d="M316 618.811L316 617.809"/>
	<path fill="none" stroke="lime" stroke-width="4" stroke-linecap="round" stroke-miterlimit="4" d="M316 617.809L316 617.022"/>
	<path fill="none" stroke="lime" stroke-width="4" stroke-linecap="round" stroke-miterlimit="4" d="M316 617.022L316 616.456"/>
	<path fill="none" stroke="lime" stroke-width="4" stroke-linecap="round" stroke-miterlimit="4" d="M316 616.456L316 616.114"/>
	<path fill="none" stroke="lime" stroke-width="4" stroke-linecap="round" stroke-miterlimit="4" d="M316 616.114L316 616"/>
	<ellipse fill="red" cx="316" cy="646" rx="4" ry="4"/>
	<text fill="lime" font-size="16" font-family="Segoe UI" x="304.35938, 312.98438, 321.60938, " y="654, ">
			90°
	</text>
	<path fill="none" stroke="red" stroke-width="4" stroke-miterlimit="4" d="M316 616L316 616"/>
	<text fill="lime" font-size="16" font-family="Segoe UI" x="283.10547, 291.73047, 300.35547, 308.98047, 313.36328, 318.19141, 326.81641, 335.44141, 344.06641, " y="616, ">
			304 (240)
	</text>
	<path fill="none" stroke="lime" stroke-width="4" stroke-linecap="round" stroke-miterlimit="4" d="M316 616L316 616.114"/>
	<path fill="none" stroke="lime" stroke-width="4" stroke-linecap="round" stroke-miterlimit="4" d="M316 616.114L316 616.456"/>
	<path fill="none" stroke="lime" stroke-width="4" stroke-linecap="round" stroke-miterlimit="4" d="M316 616.456L316 617.022"/>
	<path fill="none" stroke="lime" stroke-width="4" stroke-linecap="round" stroke-miterlimit="4" d="M316 617.022L316 617.809"/>
	<path fill="none" stroke="lime" stroke-width="4" stroke-linecap="round" stroke-miterlimit="4" d="M316 617.809L316 618.811"/>
	<path fill="none" stroke="lime" stroke-width="4" stroke-linecap="round" stroke-miterlimit="4" d="M316 618.811L316 620.019"/>
	<path fill="none" stroke="lime" stroke-width="4" stroke-linecap="round" stroke-miterlimit="4" d="M316 620.019L316 621.425"/>
	<path fill="none" stroke="lime" stroke-width="4" stroke-linecap="round" stroke-miterlimit="4" d="M316 621.425L316 623.019"/>
	<path fill="none" stroke="lime" stroke-width="4" stroke-linecap="round" stroke-miterlimit="4" d="M316 623.019L316 624.787"/>
	<path fill="none" stroke="lime" stroke-width="4" stroke-linecap="round" stroke-miterlimit="4" d="M316 624.787L316 626.716"/>
	<path fill="none" stroke="lime" stroke-width="4" stroke-linecap="round" stroke-miterlimit="4" d="M316 626.716L316 628.793"/>
	<path fill="none" stroke="lime" stroke-width="4" stroke-linecap="round" stroke-miterlimit="4" d="M316 628.793L316 631"/>
	<path fill="none" stroke="lime" stroke-width="4" stroke-linecap="round" stroke-miterlimit="4" d="M316 631L316 633.321"/>
	<path fill="none" stroke="lime" stroke-width="4" stroke-linecap="round" stroke-miterlimit="4" d="M316 633.321L316 635.739"/>
	<path fill="none" stroke="lime" stroke-width="4" stroke-linecap="round" stroke-miterlimit="4" d="M316 635.739L316 638.235"/>
	<path fill="none" stroke="lime" stroke-width="4" stroke-linecap="round" stroke-miterlimit="4" d="M316 638.235L316 640.791"/>
	<path fill="none" stroke="lime" stroke-width="4" stroke-linecap="round" stroke-miterlimit="4" d="M316 640.791L316 643.385"/>
	<path fill="none" stroke="lime" stroke-width="4" stroke-linecap="round" stroke-miterlimit="4" d="M316 643.385L316 646"/>
	<path fill="none" stroke="lime" stroke-width="4" stroke-linecap="round" stroke-miterlimit="4" d="M316 646L316 648.615"/>
	<path fill="none" stroke="lime" stroke-width="4" stroke-linecap="round" stroke-miterlimit="4" d="M316 648.615L316 651.209"/>
	<path fill="none" stroke="lime" stroke-width="4" stroke-linecap="round" stroke-miterlimit="4" d="M316 651.209L316 653.765"/>
	<path fill="none" stroke="lime" stroke-width="4" stroke-linecap="round" stroke-miterlimit="4" d="M316 653.765L316 656.261"/>
	<path fill="none" stroke="lime" stroke-width="4" stroke-linecap="round" stroke-miterlimit="4" d="M316 656.261L316 658.679"/>
	<path fill="none" stroke="lime" stroke-width="4" stroke-linecap="round" stroke-miterlimit="4" d="M316 658.679L316 661"/>
	<path fill="none" stroke="lime" stroke-width="4" stroke-linecap="round" stroke-miterlimit="4" d="M316 661L316 663.207"/>
	<path fill="none" stroke="lime" stroke-width="4" stroke-linecap="round" stroke-miterlimit="4" d="M316 663.207L316 665.284"/>
	<path fill="none" stroke="lime" stroke-width="4" stroke-linecap="round" stroke-miterlimit="4" d="M316 665.284L316 667.213"/>
	<path fill="none" stroke="lime" stroke-width="4" stroke-linecap="round" stroke-miterlimit="4" d="M316 667.213L316 668.981"/>
	<path fill="none" stroke="lime" stroke-width="4" stroke-linecap="round" stroke-miterlimit="4" d="M316 668.981L316 670.575"/>
	<path fill="none" stroke="lime" stroke-width="4" stroke-linecap="round" stroke-miterlimit="4" d="M316 670.575L316 671.981"/>
	<path fill="none" stroke="lime" stroke-width="4" stroke-linecap="round" stroke-miterlimit="4" d="M316 671.981L316 673.189"/>
	<path fill="none" stroke="lime" stroke-width="4" stroke-linecap="round" stroke-miterlimit="4" d="M316 673.189L316 674.191"/>
	<path fill="none" stroke="lime" stroke-width="4" stroke-linecap="round" stroke-miterlimit="4" d="M316 674.191L316 674.978"/>
	<path fill="none" stroke="lime" stroke-width="4" stroke-linecap="round" stroke-miterlimit="4" d="M316 674.978L316 675.544"/>
	<path fill="none" stroke="lime" stroke-width="4" stroke-linecap="round" stroke-miterlimit="4" d="M316 675.544L316 675.886"/>
	<path fill="none" stroke="lime" stroke-width="4" stroke-linecap="round" stroke-miterlimit="4" d="M316 675.886L316 676"/>
	<path fill="none" stroke="lime" stroke-width="4" stroke-linecap="round" stroke-miterlimit="4" d="M316 676L316 675.886"/>
	<path fill="none" stroke="lime" stroke-width="4" stroke-linecap="round" stroke-miterlimit="4" d="M316 675.886L316 675.544"/>
	<path fill="none" stroke="lime" stroke-width="4" stroke-linecap="round" stroke-miterlimit="4" d="M316 675.544L316 674.978"/>
	<path fill="none" stroke="lime" stroke-width="4" stroke-linecap="round" stroke-miterlimit="4" d="M316 674.978L316 674.191"/>
	<path fill="none" stroke="lime" stroke-width="4" stroke-linecap="round" stroke-miterlimit="4" d="M316 674.191L316 673.189"/>
	<path fill="none" stroke="lime" stroke-width="4" stroke-linecap="round" stroke-miterlimit="4" d="M316 673.189L316 671.981"/>
	<path fill="none" stroke="lime" stroke-width="4" stroke-linecap="round" stroke-miterlimit="4" d="M316 671.981L316 670.575"/>
	<path fill="none" stroke="lime" stroke-width="4" stroke-linecap="round" stroke-miterlimit="4" d="M316 670.575L316 668.981"/>
	<path fill="none" stroke="lime" stroke-width="4" stroke-linecap="round" stroke-miterlimit="4" d="M316 668.981L316 667.213"/>
	<path fill="none" stroke="lime" stroke-width="4" stroke-linecap="round" stroke-miterlimit="4" d="M316 667.213L316 665.284"/>
	<path fill="none" stroke="lime" stroke-width="4" stroke-linecap="round" stroke-miterlimit="4" d="M316 665.284L316 663.207"/>
	<path fill="none" stroke="lime" stroke-width="4" stroke-linecap="round" stroke-miterlimit="4" d="M316 663.207L316 661"/>
	<path fill="none" stroke="lime" stroke-width="4" stroke-linecap="round" stroke-miterlimit="4" d="M316 661L316 658.679"/>
	<path fill="none" stroke="lime" stroke-width="4" stroke-linecap="round" stroke-miterlimit="4" d="M316 658.679L316 656.261"/>
	<path fill="none" stroke="lime" stroke-width="4" stroke-linecap="round" stroke-miterlimit="4" d="M316 656.261L316 653.765"/>
	<path fill="none" stroke="lime" stroke-width="4" stroke-linecap="round" stroke-miterlimit="4" d="M316 653.765L316 651.209"/>
	<path fill="none" stroke="lime" stroke-width="4" stroke-linecap="round" stroke-miterlimit="4" d="M316 651.209L316 648.615"/>
	<path fill="none" stroke="lime" stroke-width="4" stroke-linecap="round" stroke-miterlimit="4" d="M316 648.615L316 646"/>
	<path fill="none" stroke="lime" stroke-width="4" stroke-linecap="round" stroke-miterlimit="4" d="M316 646L316 643.385"/>
	<path fill="none" stroke="lime" stroke-width="4" stroke-linecap="round" stroke-miterlimit="4" d="M316 643.385L316 640.791"/>
	<path fill="none" stroke="lime" stroke-width="4" stroke-linecap="round" stroke-miterlimit="4" d="M316 640.791L316 638.235"/>
	<path fill="none" stroke="lime" stroke-width="4" stroke-linecap="round" stroke-miterlimit="4" d="M316 638.235L316 635.739"/>
	<path fill="none" stroke="lime" stroke-width="4" stroke-linecap="round" stroke-miterlimit="4" d="M316 635.739L316 633.321"/>
	<path fill="none" stroke="lime" stroke-width="4" stroke-linecap="round" stroke-miterlimit="4" d="M316 633.321L316 631"/>
	<path fill="none" stroke="lime" stroke-width="4" stroke-linecap="round" stroke-miterlimit="4" d="M316 631L316 628.793"/>
	<path fill="none" stroke="lime" stroke-width="4" stroke-linecap="round" stroke-miterlimit="4" d="M316 628.793L316 626.716"/>
	<path fill="none" stroke="lime" stroke-width="4" stroke-linecap="round" stroke-miterlimit="4" d="M316 626.716L316 624.787"/>
	<path fill="none" stroke="lime" stroke-width="4" stroke-linecap="round" stroke-miterlimit="4" d="M316 624.787L316 623.019"/>
	<path fill="none" stroke="lime" stroke-width="4" stroke-linecap="round" stroke-miterlimit="4" d="M316 623.019L316 621.425"/>
	<path fill="none" stroke="lime" stroke-width="4" stroke-linecap="round" stroke-miterlimit="4" d="M316 621.425L316 620.019"/>
	<path fill="none" stroke="lime" stroke-width="4" stroke-linecap="round" stroke-miterlimit="4" d="M316 620.019L316 618.811"/>
	<path fill="none" stroke="lime" stroke-width="4" stroke-linecap="round" stroke-miterlimit="4" d="M316 618.811L316 617.809"/>
	<path fill="none" stroke="lime" stroke-width="4" stroke-linecap="round" stroke-miterlimit="4" d="M316 617.809L316 617.022"/>
	<path fill="none" stroke="lime" stroke-width="4" stroke-linecap="round" stroke-miterlimit="4" d="M316 617.022L316 616.456"/>
	<path fill="none" stroke="lime" stroke-width="4" stroke-linecap="round" stroke-miterlimit="4" d="M316 616.456L316 616.114"/>
	<path fill="none" stroke="lime" stroke-width="4" stroke-linecap="round" stroke-miterlimit="4" d="M316 616.114L316 616"/>
	<path fill="none" stroke="lime" stroke-width="4" stroke-linecap="round" stroke-miterlimit="4" d="M316 616L316 616.114"/>
	<path fill="none" stroke="lime" stroke-width="4" stroke-linecap="round" stroke-miterlimit="4" d="M316 616.114L316 616.456"/>
	<path fill="none" stroke="lime" stroke-width="4" stroke-linecap="round" stroke-miterlimit="4" d="M316 616.456L316 617.022"/>
	<path fill="none" stroke="lime" stroke-width="4" stroke-linecap="round" stroke-miterlimit="4" d="M316 617.022L316 617.809"/>
	<path fill="none" stroke="lime" stroke-width="4" stroke-linecap="round" stroke-miterlimit="4" d="M316 617.809L316 618.811"/>
	<path fill="none" stroke="lime" stroke-width="4" stroke-linecap="round" stroke-miterlimit="4" d="M316 618.811L316 620.019"/>
	<path fill="none" stroke="lime" stroke-width="4" stroke-linecap="round" stroke-miterlimit="4" d="M316 620.019L316 621.425"/>
	<path fill="none" stroke="lime" stroke-width="4" stroke-linecap="round" stroke-miterlimit="4" d="M316 621.425L316 623.019"/>
	<path fill="none" stroke="lime" stroke-width="4" stroke-linecap="round" stroke-miterlimit="4" d="M316 623.019L316 624.787"/>
	<path fill="none" stroke="lime" stroke-width="4" stroke-linecap="round" stroke-miterlimit="4" d="M316 624.787L316 626.716"/>
	<path fill="none" stroke="lime" stroke-width="4" stroke-linecap="round" stroke-miterlimit="4" d="M316 626.716L316 628.793"/>
	<path fill="none" stroke="lime" stroke-width="4" stroke-linecap="round" stroke-miterlimit="4" d="M316 628.793L316 631"/>
	<path fill="none" stroke="lime" stroke-width="4" stroke-linecap="round" stroke-miterlimit="4" d="M316 631L316 633.321"/>
	<path fill="none" stroke="lime" stroke-width="4" stroke-linecap="round" stroke-miterlimit="4" d="M316 633.321L316 635.739"/>
	<path fill="none" stroke="lime" stroke-width="4" stroke-linecap="round" stroke-miterlimit="4" d="M316 635.739L316 638.235"/>
	<path fill="none" stroke="lime" stroke-width="4" stroke-linecap="round" stroke-miterlimit="4" d="M316 638.235L316 640.791"/>
	<path fill="none" stroke="lime" stroke-width="4" stroke-linecap="round" stroke-miterlimit="4" d="M316 640.791L316 643.385"/>
	<path fill="none" stroke="lime" stroke-width="4" stroke-linecap="round" stroke-miterlimit="4" d="M316 643.385L316 646"/>
	<path fill="none" stroke="lime" stroke-width="4" stroke-linecap="round" stroke-miterlimit="4" d="M316 646L316 648.615"/>
	<path fill="none" stroke="lime" stroke-width="4" stroke-linecap="round" stroke-miterlimit="4" d="M316 648.615L316 651.209"/>
	<path fill="none" stroke="lime" stroke-width="4" stroke-linecap="round" stroke-miterlimit="4" d="M316 651.209L316 653.765"/>
	<path fill="none" stroke="lime" stroke-width="4" stroke-linecap="round" stroke-miterlimit="4" d="M316 653.765L316 646"/>
	<ellipse fill="red" cx="316" cy="646" rx="4" ry="4"/>
	<text fill="lime" font-size="16" font-family="Segoe UI" x="300.04688, 308.67188, 317.29688, 325.92188, " y="654, ">
			470°
	</text>
	<path fill="none" stroke="red" stroke-width="4" stroke-miterlimit="4" d="M316 646L316 886"/>
	<text fill="lime" font-size="16" font-family="Segoe UI" x="283.10547, 291.73047, 300.35547, 308.98047, 313.36328, 318.19141, 326.81641, 335.44141, 344.06641, " y="766, ">
			304 (240)
	</text>
	<path fill="none" stroke="lime" stroke-width="4" stroke-linecap="round" stroke-miterlimit="4" d="M316 886L316.114 888.615"/>
	<path fill="none" stroke="lime" stroke-width="4" stroke-linecap="round" stroke-miterlimit="4" d="M316.114 888.615L316.456 891.209"/>
	<path fill="none" stroke="lime" stroke-width="4" stroke-linecap="round" stroke-miterlimit="4" d="M316.456 891.209L317.022 893.765"/>
	<path fill="none" stroke="lime" stroke-width="4" stroke-linecap="round" stroke-miterlimit="4" d="M317.022 893.765L317.809 896.261"/>
	<path fill="none" stroke="lime" stroke-width="4" stroke-linecap="round" stroke-miterlimit="4" d="M317.809 896.261L318.811 898.679"/>
	<path fill="none" stroke="lime" stroke-width="4" stroke-linecap="round" stroke-miterlimit="4" d="M318.811 898.679L320.019 901"/>
	<path fill="none" stroke="lime" stroke-width="4" stroke-linecap="round" stroke-miterlimit="4" d="M320.019 901L321.425 903.207"/>
	<path fill="none" stroke="lime" stroke-width="4" stroke-linecap="round" stroke-miterlimit="4" d="M321.425 903.207L323.019 905.284"/>
	<path fill="none" stroke="lime" stroke-width="4" stroke-linecap="round" stroke-miterlimit="4" d="M323.019 905.284L324.787 907.213"/>
	<path fill="none" stroke="lime" stroke-width="4" stroke-linecap="round" stroke-miterlimit="4" d="M324.787 907.213L326.716 908.981"/>
	<path fill="none" stroke="lime" stroke-width="4" stroke-linecap="round" stroke-miterlimit="4" d="M326.716 908.981L328.793 910.575"/>
	<path fill="none" stroke="lime" stroke-width="4" stroke-linecap="round" stroke-miterlimit="4" d="M328.793 910.575L331 911.981"/>
	<path fill="none" stroke="lime" stroke-width="4" stroke-linecap="round" stroke-miterlimit="4" d="M331 911.981L333.321 913.189"/>
	<path fill="none" stroke="lime" stroke-width="4" stroke-linecap="round" stroke-miterlimit="4" d="M333.321 913.189L335.739 914.191"/>
	<path fill="none" stroke="lime" stroke-width="4" stroke-linecap="round" stroke-miterlimit="4" d="M335.739 914.191L338.235 914.978"/>
	<path fill="none" stroke="lime" stroke-width="4" stroke-linecap="round" stroke-miterlimit="4" d="M338.235 914.978L340.791 915.544"/>
	<path fill="none" stroke="lime" stroke-width="4" stroke-linecap="round" stroke-miterlimit="4" d="M340.791 915.544L343.385 915.886"/>
	<path fill="none" stroke="lime" stroke-width="4" stroke-linecap="round" stroke-miterlimit="4" d="M343.385 915.886L346 916"/>
	<ellipse fill="red" cx="346" cy="886" rx="4" ry="4"/>
	<text fill="lime" font-size="16" font-family="Segoe UI" x="334.35938, 342.98438, 351.60938, " y="894, ">
			90°
	</text>
	<path fill="none" stroke="red" stroke-width="4" stroke-miterlimit="4" d="M346 916L616 916"/>
	<text fill="lime" font-size="16" font-family="Segoe UI" x="448.10547, 456.73047, 465.35547, 473.98047, 478.36328, 483.19141, 491.81641, 500.44141, 509.06641, " y="916, ">
			302 (270)
	</text>
	<text fill="#0064FF" font-size="16" font-family="Segoe UI" x="294.41797, 303.85547, 307.32422, 311.70703, 320.33203, 328.95703, " y="918, ">
			X: 600
	</text>
	<path fill="none" stroke="#0064FF" stroke-width="4" stroke-linecap="round" stroke-miterlimit="4" d="M16 930L616 930"/>
	<text fill="#0064FF" font-size="16" font-family="Segoe UI" x="568, 576.84375, 580.3125, 584.69531, 593.32031, 601.94531, " y="766, ">
			Y: 304
	</text>
	<path fill="none" stroke="#0064FF" stroke-width="4" stroke-linecap="round" stroke-miterlimit="4" d="M628 614L628 918"/>
	<text fill="#0064FF" font-size="16" font-family="Segoe UI" x="568, 577.125, 580.59375, 584.97656, 593.60156, 602.22656, " y="918, ">
			Z: 304
	</text>
	<ellipse fill="#0064FF" cx="628" cy="930" rx="4" ry="4"/>
</svg>
